<svg id="visual" viewBox="0 0 1920 1080" width="1920" height="1080" xmlns="http://www.w3.org/2000/svg" xmlns:xlink="http://www.w3.org/1999/xlink" version="1.1"><rect x="0" y="0" width="1920" height="1080" fill="#17122A"></rect><path d="M0 690L29.2 709C58.3 728 116.7 766 174.8 789.7C233 813.3 291 822.7 349.2 819.7C407.3 816.7 465.7 801.3 523.8 800.8C582 800.3 640 814.7 698.2 819C756.3 823.3 814.7 817.7 872.8 800.5C931 783.3 989 754.7 1047.2 739C1105.3 723.3 1163.7 720.7 1221.8 724.7C1280 728.7 1338 739.3 1396.2 756.2C1454.3 773 1512.7 796 1570.8 805.2C1629 814.3 1687 809.7 1745.2 805.3C1803.3 801 1861.7 797 1890.8 795L1920 793L1920 1081L1890.8 1081C1861.7 1081 1803.3 1081 1745.2 1081C1687 1081 1629 1081 1570.8 1081C1512.7 1081 1454.3 1081 1396.2 1081C1338 1081 1280 1081 1221.8 1081C1163.7 1081 1105.3 1081 1047.2 1081C989 1081 931 1081 872.8 1081C814.7 1081 756.3 1081 698.2 1081C640 1081 582 1081 523.8 1081C465.7 1081 407.3 1081 349.2 1081C291 1081 233 1081 174.8 1081C116.7 1081 58.3 1081 29.2 1081L0 1081Z" fill="#1e91d6"></path><path d="M0 742L29.2 758.3C58.3 774.7 116.7 807.3 174.8 812C233 816.7 291 793.3 349.2 789.7C407.3 786 465.7 802 523.8 812.3C582 822.7 640 827.3 698.2 815.8C756.3 804.3 814.7 776.7 872.8 779.3C931 782 989 815 1047.2 824.2C1105.3 833.3 1163.7 818.7 1221.8 824.3C1280 830 1338 856 1396.2 853.2C1454.3 850.3 1512.7 818.7 1570.8 805.7C1629 792.7 1687 798.3 1745.2 799.8C1803.3 801.3 1861.7 798.7 1890.8 797.3L1920 796L1920 1081L1890.8 1081C1861.7 1081 1803.3 1081 1745.2 1081C1687 1081 1629 1081 1570.8 1081C1512.7 1081 1454.3 1081 1396.2 1081C1338 1081 1280 1081 1221.8 1081C1163.7 1081 1105.3 1081 1047.2 1081C989 1081 931 1081 872.8 1081C814.7 1081 756.3 1081 698.2 1081C640 1081 582 1081 523.8 1081C465.7 1081 407.3 1081 349.2 1081C291 1081 233 1081 174.8 1081C116.7 1081 58.3 1081 29.2 1081L0 1081Z" fill="#a16dc8"></path><path d="M0 793L29.2 814C58.3 835 116.7 877 174.8 876.5C233 876 291 833 349.2 828.7C407.3 824.3 465.7 858.7 523.8 878C582 897.3 640 901.7 698.2 903C756.3 904.3 814.7 902.7 872.8 883.7C931 864.7 989 828.3 1047.2 827.5C1105.3 826.7 1163.7 861.3 1221.8 878.2C1280 895 1338 894 1396.2 885.5C1454.3 877 1512.7 861 1570.8 859.5C1629 858 1687 871 1745.2 859.3C1803.3 847.7 1861.7 811.3 1890.8 793.2L1920 775L1920 1081L1890.8 1081C1861.7 1081 1803.3 1081 1745.2 1081C1687 1081 1629 1081 1570.8 1081C1512.7 1081 1454.3 1081 1396.2 1081C1338 1081 1280 1081 1221.8 1081C1163.7 1081 1105.3 1081 1047.2 1081C989 1081 931 1081 872.8 1081C814.7 1081 756.3 1081 698.2 1081C640 1081 582 1081 523.8 1081C465.7 1081 407.3 1081 349.2 1081C291 1081 233 1081 174.8 1081C116.7 1081 58.3 1081 29.2 1081L0 1081Z" fill="#de3e76"></path><path d="M0 902L29.2 906C58.3 910 116.7 918 174.8 923.5C233 929 291 932 349.2 920.3C407.3 908.7 465.7 882.3 523.8 872.7C582 863 640 870 698.2 865.7C756.3 861.3 814.7 845.7 872.8 839.8C931 834 989 838 1047.2 858.2C1105.3 878.3 1163.7 914.7 1221.8 916.8C1280 919 1338 887 1396.2 869.5C1454.3 852 1512.7 849 1570.8 850.3C1629 851.7 1687 857.3 1745.2 857.3C1803.3 857.3 1861.7 851.7 1890.8 848.8L1920 846L1920 1081L1890.8 1081C1861.7 1081 1803.3 1081 1745.2 1081C1687 1081 1629 1081 1570.8 1081C1512.7 1081 1454.3 1081 1396.2 1081C1338 1081 1280 1081 1221.8 1081C1163.7 1081 1105.3 1081 1047.2 1081C989 1081 931 1081 872.8 1081C814.7 1081 756.3 1081 698.2 1081C640 1081 582 1081 523.8 1081C465.7 1081 407.3 1081 349.2 1081C291 1081 233 1081 174.8 1081C116.7 1081 58.3 1081 29.2 1081L0 1081Z" fill="#de3c4b"></path><path d="M0 973L29.2 972.2C58.3 971.3 116.7 969.7 174.8 965.5C233 961.3 291 954.7 349.2 955.2C407.3 955.7 465.7 963.3 523.8 958.5C582 953.7 640 936.3 698.2 935.8C756.3 935.3 814.7 951.7 872.8 960.3C931 969 989 970 1047.2 956.2C1105.3 942.3 1163.7 913.7 1221.8 905.8C1280 898 1338 911 1396.2 928.8C1454.3 946.7 1512.7 969.3 1570.8 964.8C1629 960.3 1687 928.7 1745.2 918.2C1803.3 907.7 1861.7 918.3 1890.8 923.7L1920 929L1920 1081L1890.8 1081C1861.7 1081 1803.3 1081 1745.2 1081C1687 1081 1629 1081 1570.8 1081C1512.7 1081 1454.3 1081 1396.2 1081C1338 1081 1280 1081 1221.8 1081C1163.7 1081 1105.3 1081 1047.2 1081C989 1081 931 1081 872.8 1081C814.7 1081 756.3 1081 698.2 1081C640 1081 582 1081 523.8 1081C465.7 1081 407.3 1081 349.2 1081C291 1081 233 1081 174.8 1081C116.7 1081 58.3 1081 29.2 1081L0 1081Z" fill="#de3e76"></path><path d="M0 947L29.2 960.3C58.3 973.7 116.7 1000.3 174.8 1011.3C233 1022.3 291 1017.7 349.2 1001.7C407.3 985.7 465.7 958.3 523.8 961.7C582 965 640 999 698.2 1009C756.3 1019 814.7 1005 872.8 1002.8C931 1000.7 989 1010.3 1047.2 1010.3C1105.3 1010.3 1163.7 1000.7 1221.8 985.7C1280 970.7 1338 950.3 1396.2 948.2C1454.3 946 1512.7 962 1570.8 967.3C1629 972.7 1687 967.3 1745.2 973.2C1803.3 979 1861.7 996 1890.8 1004.5L1920 1013L1920 1081L1890.8 1081C1861.7 1081 1803.3 1081 1745.2 1081C1687 1081 1629 1081 1570.8 1081C1512.7 1081 1454.3 1081 1396.2 1081C1338 1081 1280 1081 1221.8 1081C1163.7 1081 1105.3 1081 1047.2 1081C989 1081 931 1081 872.8 1081C814.7 1081 756.3 1081 698.2 1081C640 1081 582 1081 523.8 1081C465.7 1081 407.3 1081 349.2 1081C291 1081 233 1081 174.8 1081C116.7 1081 58.3 1081 29.2 1081L0 1081Z" fill="#a16dc8"></path><path d="M0 1055L29.2 1056C58.3 1057 116.7 1059 174.8 1051.2C233 1043.3 291 1025.7 349.2 1022.8C407.3 1020 465.7 1032 523.8 1037C582 1042 640 1040 698.2 1038.3C756.3 1036.7 814.7 1035.3 872.8 1031.5C931 1027.7 989 1021.3 1047.2 1018.7C1105.3 1016 1163.7 1017 1221.8 1018.7C1280 1020.3 1338 1022.7 1396.2 1017C1454.3 1011.3 1512.7 997.7 1570.8 992.3C1629 987 1687 990 1745.2 997.3C1803.3 1004.7 1861.7 1016.3 1890.8 1022.2L1920 1028L1920 1081L1890.8 1081C1861.7 1081 1803.3 1081 1745.2 1081C1687 1081 1629 1081 1570.8 1081C1512.7 1081 1454.3 1081 1396.2 1081C1338 1081 1280 1081 1221.8 1081C1163.7 1081 1105.3 1081 1047.2 1081C989 1081 931 1081 872.8 1081C814.7 1081 756.3 1081 698.2 1081C640 1081 582 1081 523.8 1081C465.7 1081 407.3 1081 349.2 1081C291 1081 233 1081 174.8 1081C116.7 1081 58.3 1081 29.2 1081L0 1081Z" fill="#1e91d6"></path></svg>