<svg id="visual" viewBox="0 0 960 540" width="960" height="540" xmlns="http://www.w3.org/2000/svg" xmlns:xlink="http://www.w3.org/1999/xlink" version="1.1"><path d="M0 17L26.7 18C53.3 19 106.7 21 160 23.7C213.3 26.3 266.7 29.7 320 28.7C373.3 27.7 426.7 22.3 480 20.7C533.3 19 586.7 21 640 22C693.3 23 746.7 23 800 22C853.3 21 906.7 19 933.3 18L960 17L960 0L933.3 0C906.7 0 853.3 0 800 0C746.7 0 693.3 0 640 0C586.7 0 533.3 0 480 0C426.7 0 373.3 0 320 0C266.7 0 213.3 0 160 0C106.7 0 53.3 0 26.7 0L0 0Z" fill="#1e91d6"></path><path d="M0 44L26.7 45.8C53.3 47.7 106.7 51.3 160 53.2C213.3 55 266.7 55 320 53.2C373.3 51.3 426.7 47.7 480 46.8C533.3 46 586.7 48 640 49C693.3 50 746.7 50 800 48.2C853.3 46.3 906.7 42.7 933.3 40.8L960 39L960 15L933.3 16C906.7 17 853.3 19 800 20C746.7 21 693.3 21 640 20C586.7 19 533.3 17 480 18.7C426.7 20.3 373.3 25.7 320 26.7C266.7 27.7 213.3 24.3 160 21.7C106.7 19 53.3 17 26.7 16L0 15Z" fill="#4c9cdb"></path><path d="M0 93L26.7 94.8C53.3 96.7 106.7 100.3 160 99.3C213.3 98.3 266.7 92.7 320 95.3C373.3 98 426.7 109 480 111.8C533.3 114.7 586.7 109.3 640 108.3C693.3 107.3 746.7 110.7 800 106.2C853.3 101.7 906.7 89.3 933.3 83.2L960 77L960 37L933.3 38.8C906.7 40.7 853.3 44.3 800 46.2C746.7 48 693.3 48 640 47C586.7 46 533.3 44 480 44.8C426.7 45.7 373.3 49.3 320 51.2C266.7 53 213.3 53 160 51.2C106.7 49.3 53.3 45.7 26.7 43.8L0 42Z" fill="#6aa8df"></path><path d="M0 163L26.7 160.3C53.3 157.7 106.7 152.3 160 149.7C213.3 147 266.7 147 320 152.3C373.3 157.7 426.7 168.3 480 175.5C533.3 182.7 586.7 186.3 640 186.3C693.3 186.3 746.7 182.7 800 173.7C853.3 164.7 906.7 150.3 933.3 143.2L960 136L960 75L933.3 81.2C906.7 87.3 853.3 99.7 800 104.2C746.7 108.7 693.3 105.3 640 106.3C586.7 107.3 533.3 112.7 480 109.8C426.7 107 373.3 96 320 93.3C266.7 90.7 213.3 96.3 160 97.3C106.7 98.3 53.3 94.7 26.7 92.8L0 91Z" fill="#83b4e4"></path><path d="M0 212L26.7 210.2C53.3 208.3 106.7 204.7 160 199.2C213.3 193.7 266.7 186.3 320 190.8C373.3 195.3 426.7 211.7 480 223.3C533.3 235 586.7 242 640 242.8C693.3 243.7 746.7 238.3 800 225.8C853.3 213.3 906.7 193.7 933.3 183.8L960 174L960 134L933.3 141.2C906.7 148.3 853.3 162.7 800 171.7C746.7 180.7 693.3 184.3 640 184.3C586.7 184.3 533.3 180.7 480 173.5C426.7 166.3 373.3 155.7 320 150.3C266.7 145 213.3 145 160 147.7C106.7 150.3 53.3 155.7 26.7 158.3L0 161Z" fill="#99c0e9"></path><path d="M0 244L26.7 243.2C53.3 242.3 106.7 240.7 160 238C213.3 235.3 266.7 231.7 320 237.8C373.3 244 426.7 260 480 268C533.3 276 586.7 276 640 272.5C693.3 269 746.7 262 800 250.3C853.3 238.7 906.7 222.3 933.3 214.2L960 206L960 172L933.3 181.8C906.7 191.7 853.3 211.3 800 223.8C746.7 236.3 693.3 241.7 640 240.8C586.7 240 533.3 233 480 221.3C426.7 209.7 373.3 193.3 320 188.8C266.7 184.3 213.3 191.7 160 197.2C106.7 202.7 53.3 206.3 26.7 208.2L0 210Z" fill="#afcced"></path><path d="M0 260L26.7 262.7C53.3 265.3 106.7 270.7 160 271.7C213.3 272.7 266.7 269.3 320 272.2C373.3 275 426.7 284 480 291.2C533.3 298.3 586.7 303.7 640 301.8C693.3 300 746.7 291 800 281C853.3 271 906.7 260 933.3 254.5L960 249L960 204L933.3 212.2C906.7 220.3 853.3 236.7 800 248.3C746.7 260 693.3 267 640 270.5C586.7 274 533.3 274 480 266C426.7 258 373.3 242 320 235.8C266.7 229.7 213.3 233.3 160 236C106.7 238.7 53.3 240.3 26.7 241.2L0 242Z" fill="#c3d9f2"></path><path d="M0 384L26.7 389.5C53.3 395 106.7 406 160 405.2C213.3 404.3 266.7 391.7 320 384.5C373.3 377.3 426.7 375.7 480 377.5C533.3 379.3 586.7 384.7 640 394.5C693.3 404.3 746.7 418.7 800 419.5C853.3 420.3 906.7 407.7 933.3 401.3L960 395L960 247L933.3 252.5C906.7 258 853.3 269 800 279C746.7 289 693.3 298 640 299.8C586.7 301.7 533.3 296.3 480 289.2C426.7 282 373.3 273 320 270.2C266.7 267.3 213.3 270.7 160 269.7C106.7 268.7 53.3 263.3 26.7 260.7L0 258Z" fill="#d7e5f6"></path><path d="M0 509L26.7 507.2C53.3 505.3 106.7 501.7 160 499.8C213.3 498 266.7 498 320 501.5C373.3 505 426.7 512 480 514.7C533.3 517.3 586.7 515.7 640 512.2C693.3 508.7 746.7 503.3 800 500.7C853.3 498 906.7 498 933.3 498L960 498L960 393L933.3 399.3C906.7 405.7 853.3 418.3 800 417.5C746.7 416.7 693.3 402.3 640 392.5C586.7 382.7 533.3 377.3 480 375.5C426.7 373.7 373.3 375.3 320 382.5C266.7 389.7 213.3 402.3 160 403.2C106.7 404 53.3 393 26.7 387.5L0 382Z" fill="#ebf2fb"></path><path d="M0 541L26.7 541C53.3 541 106.7 541 160 541C213.3 541 266.7 541 320 541C373.3 541 426.7 541 480 541C533.3 541 586.7 541 640 541C693.3 541 746.7 541 800 541C853.3 541 906.7 541 933.3 541L960 541L960 496L933.3 496C906.7 496 853.3 496 800 498.7C746.7 501.3 693.3 506.7 640 510.2C586.7 513.7 533.3 515.3 480 512.7C426.7 510 373.3 503 320 499.5C266.7 496 213.3 496 160 497.8C106.7 499.7 53.3 503.3 26.7 505.2L0 507Z" fill="#ffffff"></path></svg>